# xmcd
#
# Track frame offsets:
#	150
#	15595
#	36826
#	53164
#	73517
#	89259
#	103677
#	114747
#	130334
#	147726
#	163337
#	178254
#	197046
#	213192
#	228613
#
# Disc length: 3159 seconds
#
# Revision: 1
# Processed by: cddbd v1.4PL0 Copyright (c) Steve Scherf et al.
# Submitted via: audiograbber 1.82.02
#
DISCID=e10c550f
DTITLE=Heinz Antony - Top Hits
DYEAR=1900
DGENRE=
TTITLE0=Augen Zu Und Durch
TTITLE1=Sommernacht In Rom
TTITLE2=Hohe Tannen
TTITLE3=Die Berge Meiner Heimat
TTITLE4=Eine Weiße Rose
TTITLE5=Mein Bester Freund
TTITLE6=Steier Men
TTITLE7=Sierra Madre
TTITLE8=Frag Die Zigeunerin
TTITLE9=Flieg Junger Adler
TTITLE10=Du Bist Alles Auf Dieser Welt
TTITLE11=Sommer In Der Stadt
TTITLE12=Und Über Rhodos Küss Ich Dich
TTITLE13=Sonne In Der Nacht
TTITLE14=Hey Men Polka
EXTD=
EXTT0=
EXTT1=
EXTT2=
EXTT3=
EXTT4=
EXTT5=
EXTT6=
EXTT7=
EXTT8=
EXTT9=
EXTT10=
EXTT11=
EXTT12=
EXTT13=
EXTT14=
PLAYORDER=
